<svg width="221" height="35" viewBox="0 0 221 35" fill="none" xmlns="http://www.w3.org/2000/svg">
<path d="M13.848 27V15.804H2.976V27H0.0960001V2.232H2.976V13.176H13.848V2.232H16.728V27H13.848ZM26.8724 27.288C24.9524 27.288 23.5724 26.904 22.7324 26.136C21.8924 25.344 21.4724 23.94 21.4724 21.924C21.4724 20.532 21.6164 19.452 21.9044 18.684C22.2164 17.892 22.7324 17.328 23.4524 16.992C24.1964 16.632 25.2284 16.452 26.5484 16.452C27.2204 16.452 29.1764 16.512 32.4164 16.632V15.408C32.4164 13.92 32.2964 12.864 32.0564 12.24C31.8164 11.592 31.3724 11.184 30.7244 11.016C30.1004 10.824 29.0324 10.728 27.5204 10.728C26.8484 10.728 25.9964 10.764 24.9644 10.836C23.9564 10.908 23.1404 10.992 22.5164 11.088V8.856C24.1964 8.52 26.1524 8.352 28.3844 8.352C30.3044 8.352 31.7324 8.568 32.6684 9C33.6284 9.408 34.2764 10.104 34.6124 11.088C34.9724 12.072 35.1524 13.512 35.1524 15.408V27H32.7044L32.5604 24.444H32.3804C31.9484 25.596 31.2404 26.364 30.2564 26.748C29.2964 27.108 28.1684 27.288 26.8724 27.288ZM27.8444 24.912C28.8524 24.912 29.6684 24.816 30.2924 24.624C30.9404 24.408 31.4204 23.988 31.7324 23.364C32.1884 22.428 32.4164 21.168 32.4164 19.584V18.54H27.2684C26.3804 18.54 25.7204 18.624 25.2884 18.792C24.8804 18.936 24.5924 19.236 24.4244 19.692C24.2564 20.124 24.1724 20.808 24.1724 21.744C24.1724 22.656 24.2684 23.328 24.4604 23.76C24.6524 24.192 25.0004 24.492 25.5044 24.66C26.0084 24.828 26.7884 24.912 27.8444 24.912ZM40.5164 8.64H42.9644L43.1084 11.232H43.2884C43.6964 10.104 44.3564 9.348 45.2684 8.964C46.1804 8.556 47.2844 8.352 48.5804 8.352C50.2124 8.352 51.4484 8.628 52.2884 9.18C53.1284 9.708 53.7164 10.632 54.0524 11.952C54.4124 13.272 54.5924 15.216 54.5924 17.784C54.5924 20.352 54.4244 22.308 54.0884 23.652C53.7524 24.972 53.1644 25.908 52.3244 26.46C51.4844 27.012 50.2484 27.288 48.6164 27.288C47.2484 27.288 46.1444 27.096 45.3044 26.712C44.4644 26.304 43.8524 25.632 43.4684 24.696H43.2524V34.056H40.5164V8.64ZM47.5364 24.804C48.8804 24.804 49.8284 24.648 50.3804 24.336C50.9564 24.024 51.3404 23.412 51.5324 22.5C51.7484 21.564 51.8564 20.004 51.8564 17.82C51.8564 15.636 51.7484 14.088 51.5324 13.176C51.3404 12.24 50.9564 11.616 50.3804 11.304C49.8284 10.992 48.8804 10.836 47.5364 10.836C46.4564 10.836 45.6044 11.016 44.9804 11.376C44.3564 11.712 43.9244 12.276 43.6844 13.068C43.4924 13.62 43.3724 14.256 43.3244 14.976C43.2764 15.696 43.2524 16.644 43.2524 17.82C43.2524 19.956 43.3724 21.444 43.6124 22.284C43.8764 23.196 44.3204 23.844 44.9444 24.228C45.5684 24.612 46.4324 24.804 47.5364 24.804ZM59.3602 8.64H61.8082L61.9522 11.232H62.1322C62.5402 10.104 63.2002 9.348 64.1122 8.964C65.0242 8.556 66.1282 8.352 67.4242 8.352C69.0562 8.352 70.2922 8.628 71.1322 9.18C71.9722 9.708 72.5602 10.632 72.8962 11.952C73.2562 13.272 73.4362 15.216 73.4362 17.784C73.4362 20.352 73.2682 22.308 72.9322 23.652C72.5962 24.972 72.0082 25.908 71.1682 26.46C70.3282 27.012 69.0922 27.288 67.4602 27.288C66.0922 27.288 64.9882 27.096 64.1482 26.712C63.3082 26.304 62.6962 25.632 62.3122 24.696H62.0962V34.056H59.3602V8.64ZM66.3802 24.804C67.7242 24.804 68.6722 24.648 69.2242 24.336C69.8002 24.024 70.1842 23.412 70.3762 22.5C70.5922 21.564 70.7002 20.004 70.7002 17.82C70.7002 15.636 70.5922 14.088 70.3762 13.176C70.1842 12.24 69.8002 11.616 69.2242 11.304C68.6722 10.992 67.7242 10.836 66.3802 10.836C65.3002 10.836 64.4482 11.016 63.8242 11.376C63.2002 11.712 62.7682 12.276 62.5282 13.068C62.3362 13.62 62.2162 14.256 62.1682 14.976C62.1202 15.696 62.0962 16.644 62.0962 17.82C62.0962 19.956 62.2162 21.444 62.4562 22.284C62.7202 23.196 63.1642 23.844 63.7882 24.228C64.4122 24.612 65.2762 24.804 66.3802 24.804ZM84.3959 34.308C82.5719 34.308 80.7479 34.212 78.9239 34.02V31.752C80.8919 31.872 82.5239 31.932 83.8199 31.932C85.4279 31.932 86.5919 31.728 87.3119 31.32C88.0559 30.936 88.5359 30.312 88.7519 29.448C88.9679 28.608 89.0759 27.288 89.0759 25.488V24.552H88.8959C88.5839 25.368 88.0199 26.016 87.2039 26.496C86.4119 26.952 85.2359 27.18 83.6759 27.18C82.0919 27.18 80.9039 26.94 80.1119 26.46C79.3439 25.956 78.8279 25.2 78.5639 24.192C78.2999 23.184 78.1679 21.744 78.1679 19.872V8.64H80.9039V19.188C80.9039 20.916 80.9999 22.152 81.1919 22.896C81.3839 23.64 81.7319 24.132 82.2359 24.372C82.7639 24.612 83.6279 24.732 84.8279 24.732C86.1479 24.732 87.1079 24.48 87.7079 23.976C88.3079 23.472 88.6799 22.788 88.8239 21.924C88.9919 21.036 89.0759 19.764 89.0759 18.108V8.64H91.8119V24.624C91.8119 27.168 91.6319 29.1 91.2719 30.42C90.9359 31.764 90.2399 32.748 89.1839 33.372C88.1519 33.996 86.5559 34.308 84.3959 34.308ZM97.6546 2.232H107.267C109.451 2.232 111.011 2.76 111.947 3.816C112.907 4.872 113.387 6.408 113.387 8.424C113.387 10.104 113.075 11.424 112.451 12.384C111.851 13.344 110.867 13.968 109.499 14.256V14.4C111.083 14.712 112.163 15.384 112.739 16.416C113.339 17.424 113.639 18.78 113.639 20.484C113.639 22.5 113.171 24.096 112.235 25.272C111.299 26.424 109.595 27 107.123 27H97.6546V2.232ZM106.439 13.176C107.807 13.176 108.827 12.84 109.499 12.168C110.171 11.496 110.507 10.44 110.507 9C110.507 7.944 110.387 7.116 110.147 6.516C109.931 5.916 109.523 5.484 108.923 5.22C108.347 4.932 107.519 4.788 106.439 4.788H100.535V13.176H106.439ZM106.583 24.48C108.167 24.48 109.247 24.156 109.823 23.508C110.423 22.86 110.723 21.732 110.723 20.124C110.723 18.516 110.411 17.388 109.787 16.74C109.187 16.068 108.119 15.732 106.583 15.732H100.535V24.48H106.583ZM118.456 3.384V0.251999H121.372V3.384H118.456ZM118.528 27V8.64H121.264V27H118.528ZM126.684 8.64H129.132L129.276 12.132H129.492C129.852 10.692 130.476 9.708 131.364 9.18C132.276 8.628 133.464 8.352 134.928 8.352V11.124C133.488 11.124 132.36 11.388 131.544 11.916C130.752 12.42 130.2 13.2 129.888 14.256C129.576 15.288 129.42 16.668 129.42 18.396V27H126.684V8.64ZM139.97 27V11.016H136.766V8.64H139.97V3.312H142.706V8.64H146.486V11.016H142.706V27H139.97ZM160.971 16.416C160.971 14.664 160.875 13.428 160.683 12.708C160.515 11.964 160.167 11.472 159.639 11.232C159.135 10.992 158.283 10.872 157.083 10.872C155.763 10.872 154.791 11.124 154.167 11.628C153.567 12.108 153.183 12.792 153.015 13.68C152.871 14.568 152.799 15.828 152.799 17.46V27H150.063V0.251999H152.799V10.98H152.979C153.339 10.164 153.915 9.528 154.707 9.072C155.523 8.592 156.687 8.352 158.199 8.352C159.759 8.352 160.923 8.592 161.691 9.072C162.483 9.552 163.011 10.284 163.275 11.268C163.563 12.228 163.707 13.596 163.707 15.372V27H160.971V16.416ZM173.474 27.288C171.554 27.288 170.174 26.904 169.334 26.136C168.494 25.344 168.074 23.94 168.074 21.924C168.074 20.532 168.218 19.452 168.506 18.684C168.818 17.892 169.334 17.328 170.054 16.992C170.798 16.632 171.83 16.452 173.15 16.452C173.822 16.452 175.778 16.512 179.018 16.632V15.408C179.018 13.92 178.898 12.864 178.658 12.24C178.418 11.592 177.974 11.184 177.326 11.016C176.702 10.824 175.634 10.728 174.122 10.728C173.45 10.728 172.598 10.764 171.566 10.836C170.558 10.908 169.742 10.992 169.118 11.088V8.856C170.798 8.52 172.754 8.352 174.986 8.352C176.906 8.352 178.334 8.568 179.27 9C180.23 9.408 180.878 10.104 181.214 11.088C181.574 12.072 181.754 13.512 181.754 15.408V27H179.306L179.162 24.444H178.982C178.55 25.596 177.842 26.364 176.858 26.748C175.898 27.108 174.77 27.288 173.474 27.288ZM174.446 24.912C175.454 24.912 176.27 24.816 176.894 24.624C177.542 24.408 178.022 23.988 178.334 23.364C178.79 22.428 179.018 21.168 179.018 19.584V18.54H173.87C172.982 18.54 172.322 18.624 171.89 18.792C171.482 18.936 171.194 19.236 171.026 19.692C170.858 20.124 170.774 20.808 170.774 21.744C170.774 22.656 170.87 23.328 171.062 23.76C171.254 24.192 171.602 24.492 172.106 24.66C172.61 24.828 173.39 24.912 174.446 24.912ZM187.118 8.64H189.566L189.71 11.232H189.89C190.298 10.104 190.958 9.348 191.87 8.964C192.782 8.556 193.886 8.352 195.182 8.352C196.814 8.352 198.05 8.628 198.89 9.18C199.73 9.708 200.318 10.632 200.654 11.952C201.014 13.272 201.194 15.216 201.194 17.784C201.194 20.352 201.026 22.308 200.69 23.652C200.354 24.972 199.766 25.908 198.926 26.46C198.086 27.012 196.85 27.288 195.218 27.288C193.85 27.288 192.746 27.096 191.906 26.712C191.066 26.304 190.454 25.632 190.07 24.696H189.854V34.056H187.118V8.64ZM194.138 24.804C195.482 24.804 196.43 24.648 196.982 24.336C197.558 24.024 197.942 23.412 198.134 22.5C198.35 21.564 198.458 20.004 198.458 17.82C198.458 15.636 198.35 14.088 198.134 13.176C197.942 12.24 197.558 11.616 196.982 11.304C196.43 10.992 195.482 10.836 194.138 10.836C193.058 10.836 192.206 11.016 191.582 11.376C190.958 11.712 190.526 12.276 190.286 13.068C190.094 13.62 189.974 14.256 189.926 14.976C189.878 15.696 189.854 16.644 189.854 17.82C189.854 19.956 189.974 21.444 190.214 22.284C190.478 23.196 190.922 23.844 191.546 24.228C192.17 24.612 193.034 24.804 194.138 24.804ZM205.962 8.64H208.41L208.554 11.232H208.734C209.142 10.104 209.802 9.348 210.714 8.964C211.626 8.556 212.73 8.352 214.026 8.352C215.658 8.352 216.894 8.628 217.734 9.18C218.574 9.708 219.162 10.632 219.498 11.952C219.858 13.272 220.038 15.216 220.038 17.784C220.038 20.352 219.87 22.308 219.534 23.652C219.198 24.972 218.61 25.908 217.77 26.46C216.93 27.012 215.694 27.288 214.062 27.288C212.694 27.288 211.59 27.096 210.75 26.712C209.91 26.304 209.298 25.632 208.914 24.696H208.698V34.056H205.962V8.64ZM212.982 24.804C214.326 24.804 215.274 24.648 215.826 24.336C216.402 24.024 216.786 23.412 216.978 22.5C217.194 21.564 217.302 20.004 217.302 17.82C217.302 15.636 217.194 14.088 216.978 13.176C216.786 12.24 216.402 11.616 215.826 11.304C215.274 10.992 214.326 10.836 212.982 10.836C211.902 10.836 211.05 11.016 210.426 11.376C209.802 11.712 209.37 12.276 209.13 13.068C208.938 13.62 208.818 14.256 208.77 14.976C208.722 15.696 208.698 16.644 208.698 17.82C208.698 19.956 208.818 21.444 209.058 22.284C209.322 23.196 209.766 23.844 210.39 24.228C211.014 24.612 211.878 24.804 212.982 24.804Z" fill="white"/>
</svg>
